PathFileType	4	(X/Y/Z)	/Users/itak/Documents/Research/Walk-IL/dataset/trc/00286_00010.trc
DataRate	CameraRate	NumFrames	NumMarkers	Units	OrigDataRate	OrigDataStartFrame	OrigNumFrames
100.000000	100.000000	4	54	mm	100.000000	567	648
Frame#	Time	RPSI			LPSI			L3			STRN			T10			C7			CLAV			RBAK			LBAK			LSHO			LUPA			LAEL			LAOL			LWTS			LWPS			LFRA			LIFD			LHPS			LHTS			RSHO			RUPA			RAEL			RAOL			RWTS			RWPS			RFRA			RIFD			RHTS			RHPS			RBHD			LFHD			RFHD			LBHD			LHIP			RASI			LASI			LKNE			LTHI			LANK			LTIP			LTOE			LMT1			LMT5			LHEE			RKNE			RANK			RTIP			RTOE			RMT1			RMT5			RHEE			RHIP			RTHI			*53			
		X1	Y1	Z1	X2	Y2	Z2	X3	Y3	Z3	X4	Y4	Z4	X5	Y5	Z5	X6	Y6	Z6	X7	Y7	Z7	X8	Y8	Z8	X9	Y9	Z9	X10	Y10	Z10	X11	Y11	Z11	X12	Y12	Z12	X13	Y13	Z13	X14	Y14	Z14	X15	Y15	Z15	X16	Y16	Z16	X17	Y17	Z17	X18	Y18	Z18	X19	Y19	Z19	X20	Y20	Z20	X21	Y21	Z21	X22	Y22	Z22	X23	Y23	Z23	X24	Y24	Z24	X25	Y25	Z25	X26	Y26	Z26	X27	Y27	Z27	X28	Y28	Z28	X29	Y29	Z29	X30	Y30	Z30	X31	Y31	Z31	X32	Y32	Z32	X33	Y33	Z33	X34	Y34	Z34	X35	Y35	Z35	X36	Y36	Z36	X37	Y37	Z37	X38	Y38	Z38	X39	Y39	Z39	X40	Y40	Z40	X41	Y41	Z41	X42	Y42	Z42	X43	Y43	Z43	X44	Y44	Z44	X45	Y45	Z45	X46	Y46	Z46	X47	Y47	Z47	X48	Y48	Z48	X49	Y49	Z49	X50	Y50	Z50	X51	Y51	Z51	X52	Y52	Z52	X53	Y53	Z53	X54	Y54	Z54	

568	5.67	-746.1343383789062	992.1867065429688	293.5748901367188	-577.9671020507812	974.6856079101562	247.6361694335938	-642.1005249023438	1050.013427734375	275.3099365234375	-595.6272583007812	1237.714111328125	511.1539611816406	-636.8283081054688	1162.52880859375	250.3289184570312	-615.8856201171875	1409.87939453125	279.5918579101562	-604.1040649414062	1334.898071289062	442.2690734863281	-696.25	1267.221557617188	244.5343933105469	-512.224853515625	1373.606689453125	253.5109100341797	-454.4748840332031	1381.927001953125	340.6068725585938	-379.743408203125	1265.20361328125	325.5640563964844	-366.2815246582031	1063.355102539062	361.5677185058594	-408.5810546875	1042.908569335938	287.4158325195312	-434.4803466796875	837.5618286132812	431.3682250976562	-363.92431640625	830.374267578125	423.5919799804688	-361.0637512207031	960.2108154296875	385.3336791992188	-427.3271789550781	651.16455078125	422.3890991210938	-363.5148620605469	742.0267944335938	422.8204956054688	-421.5243835449219	738.5040283203125	455.3554077148438	-766.1489868164062	1389.390747070312	363.8607177734375	-834.7110595703125	1335.926025390625	361.9942016601562	-898.423583984375	1077.5595703125	328.22021484375	-807.0617065429688	1063.352172851562	305.5947570800781	-888.5706176757812	840.8746948242188	408.7383422851562	-953.6710815429688	852.3859252929688	354.8234558105469	-921.339111328125	1011.567260742188	342.8575744628906	-915.1276245117188	659.3651733398438	386.270751953125	-928.348876953125	726.4619140625	419.0523071289062	-969.9027099609375	740.8601684570312	364.2309875488281	-699.5859985351562	1571.609130859375	336.6712951660156	-530.8961791992188	1603.928833007812	462.5793762207031	-618.5340576171875	1600.85693359375	492.244140625	-560.0828247070312	1567.13232421875	292.4115905761719	-469.3182373046875	919.5014038085938	285.4833984375	-712.0410766601562	952.806640625	514.600830078125	-472.7179870605469	932.4902954101562	432.7225036621094	-483.095703125	460.1007995605469	305.63916015625	-466.8330383300781	601.3035278320312	312.361572265625	-563.4291381835938	182.0219573974609	-30.92976379394531	-516.981201171875	306.4131164550781	134.625732421875	-688.16650390625	32.64576721191406	35.50925064086914	-693.3882446289062	84.57205963134766	-9.642129898071289	-588.426513671875	69.95208740234375	21.41674423217773	-610.1885375976562	231.5715942382812	-60.06045532226562	-753.351318359375	495.8240661621094	552.8284912109375	-744.9962158203125	38.23140716552734	551.5484619140625	-737.318603515625	374.98486328125	582.8342895507812	-608.9951782226562	56.86909484863281	699.484130859375	-599.7577514648438	54.36140060424805	631.0330810546875	-713.8695068359375	32.00195693969727	652.3299560546875	-723.533447265625	38.76970672607422	482.6907958984375	-817.1859741210938	951.6276245117188	423.204345703125	-796.8082275390625	754.7889404296875	517.2190551757812	nan	nan	nan	
569	5.68	-748.2615356445312	993.9891967773438	302.9600830078125	-580.9149780273438	975.8480224609375	254.4042205810547	-644.6650390625	1051.669555664062	283.4234619140625	-593.94091796875	1239.1611328125	518.5817260742188	-639.734130859375	1164.328979492188	258.5176086425781	-618.1694946289062	1411.568725585938	287.5909118652344	-603.5487060546875	1336.375610351562	449.9896545410156	-699.1708984375	1268.953247070312	253.8766937255859	-514.9144897460938	1375.299072265625	259.8996887207031	-455.6536254882812	1383.645629882812	346.0440063476562	-380.9851684570312	1267.112915039062	329.1304016113281	-366.0550842285156	1065.238159179688	363.4001159667969	-409.6606140136719	1045.25048828125	290.0180969238281	-430.0918884277344	836.2949829101562	428.3694458007812	-359.4744567871094	830.8851318359375	419.8587036132812	-359.1953125	961.811279296875	385.0628356933594	-419.1938171386719	650.3713989257812	412.0101318359375	-357.1485595703125	742.5789794921875	416.11962890625	-415.1104736328125	736.5774536132812	448.5635681152344	-766.8931274414062	1390.944091796875	374.3486633300781	-835.5581665039062	1337.476440429688	373.7234802246094	-899.946044921875	1078.468627929688	344.2491149902344	-809.178955078125	1064.00537109375	319.6744079589844	-887.3497314453125	843.8215942382812	430.1485900878906	-953.5558471679688	853.3563232421875	377.179443359375	-922.1156005859375	1012.348205566406	360.5871276855469	-913.82470703125	661.5107421875	415.09228515625	-926.797119140625	730.0427856445312	445.5556640625	-969.2182006835938	742.2293701171875	390.7733154296875	-701.4171752929688	1572.96142578125	345.32763671875	-530.6361694335938	1606.58544921875	468.0892333984375	-617.8130493164062	1603.452880859375	499.2787780761719	-562.61669921875	1568.529418945312	298.6551818847656	-471.6732177734375	920.6288452148438	290.6011047363281	-710.8104858398438	954.3641357421875	523.42138671875	-472.7249450683594	934.1712646484375	438.0263366699219	-479.4772338867188	461.3094482421875	317.680908203125	-465.4150390625	602.6817626953125	321.6701965332031	-567.0792236328125	189.6164703369141	-19.98899078369141	-516.7657470703125	309.9944152832031	145.9713439941406	-686.5845947265625	31.73679351806641	41.17190551757812	-694.2670288085938	88.54837036132812	0.5165647268295288	-588.5171508789062	73.94395446777344	25.97386932373047	-615.8519287109375	239.3880462646484	-44.91559600830078	-753.0651245117188	495.6100769042969	556.5845947265625	-744.4048461914062	38.87094116210938	551.547607421875	-737.0438232421875	374.5128479003906	585.0182495117188	-607.531982421875	54.66048812866211	699.916259765625	-598.7832641601562	52.91276931762695	631.3353271484375	-713.1687622070312	32.31000518798828	652.184326171875	-722.9844360351562	39.07682037353516	482.6346130371094	-817.3262329101562	953.2406616210938	433.642333984375	-795.8511352539062	755.4986572265625	525.4608154296875	nan	nan	nan	
570	5.69	-750.2511596679688	995.647705078125	312.0469360351562	-583.716552734375	976.973876953125	260.9539489746094	-647.146728515625	1053.213012695312	291.2532653808594	-592.1806030273438	1240.454467773438	525.7933349609375	-642.6287231445312	1166.070556640625	266.4892272949219	-620.47802734375	1413.206909179688	295.5188598632812	-602.933837890625	1337.658813476562	457.5248107910156	-702.1171875	1270.700805664062	263.1257629394531	-517.6761474609375	1376.947875976562	266.1473388671875	-456.8632507324219	1385.243530273438	351.2685546875	-382.2903442382812	1268.927734375	332.15380859375	-365.7259216308594	1067.050903320312	364.334228515625	-411.0152587890625	1047.470336914062	292.0123291015625	-425.6151428222656	835.6451416015625	425.5289001464844	-355.062744140625	831.7718505859375	415.8079528808594	-357.2117614746094	963.4444580078125	384.0546875	-411.3102111816406	650.3218383789062	402.8233642578125	-351.0216064453125	743.643798828125	409.579833984375	-408.6438598632812	735.4821166992188	442.2631225585938	-767.5618286132812	1392.447631835938	384.8581848144531	-836.2948608398438	1338.979858398438	385.5025634765625	-901.3795776367188	1079.417358398438	360.3578491210938	-811.2733154296875	1064.619018554688	333.7392883300781	-885.8838500976562	847.0327758789062	451.6427307128906	-953.1502685546875	854.5308837890625	399.6422424316406	-922.73876953125	1013.181091308594	378.3796081542969	-912.0494995117188	664.129638671875	444.0570983886719	-924.9196166992188	734.0344848632812	472.1757507324219	-968.1657104492188	743.9600219726562	417.463623046875	-703.1162109375	1574.234008789062	353.9205017089844	-530.2406616210938	1609.081909179688	473.4099731445312	-616.89892578125	1605.976684570312	506.15380859375	-565.0703125	1569.715454101562	304.7777404785156	-473.9195556640625	921.80322265625	295.57666015625	-709.5909423828125	955.7994995117188	531.94140625	-472.7152404785156	935.78759765625	443.1055297851562	-475.8571472167969	462.5205688476562	330.0111083984375	-463.8818969726562	603.9951782226562	331.2452392578125	-570.9672241210938	197.0573883056641	-8.474834442138672	-516.5714721679688	313.4761352539062	157.8013458251953	-684.2584838867188	30.97066688537598	48.06069946289062	-695.0103149414062	92.16439056396484	12.05357933044434	-588.4680786132812	78.38082122802734	31.16845321655273	-621.7628784179688	246.6256103515625	-29.22950172424316	-752.6172485351562	495.4500427246094	560.446044921875	-743.8090209960938	39.52062606811523	551.5709228515625	-736.5301513671875	374.0879821777344	587.2657470703125	-606.0979614257812	52.57569122314453	700.2808837890625	-597.8331298828125	51.51601028442383	631.59814453125	-712.4262084960938	32.65116882324219	652.0422973632812	-722.4390869140625	39.37811279296875	482.5927429199219	-817.3572387695312	954.7532958984375	443.7264099121094	-794.6370849609375	756.1598510742188	533.5274658203125	nan	nan	nan	
571	5.7	-752.1067504882812	997.1568603515625	320.8329162597656	-586.37451171875	978.0685424804688	267.2838134765625	-649.5398559570312	1054.664916992188	298.8136596679688	-590.3575439453125	1241.60595703125	532.7880249023438	-645.5087280273438	1167.750366210938	274.238037109375	-622.805419921875	1414.789672851562	303.3710327148438	-602.2735595703125	1338.771850585938	464.8681945800781	-705.1067504882812	1272.457397460938	272.2646789550781	-520.5133666992188	1378.556884765625	272.2493591308594	-458.1168823242188	1386.73388671875	356.2735290527344	-383.6795959472656	1270.677612304688	334.6715087890625	-365.3154602050781	1068.824584960938	364.437255859375	-412.6236267089844	1049.598876953125	293.4525146484375	-421.0629577636719	835.5654296875	422.9108581542969	-350.7261047363281	832.9854736328125	411.4687805175781	-355.1585998535156	965.1176147460938	382.3534851074219	-403.7545166015625	650.8449096679688	394.8621215820312	-345.2041015625	745.1227416992188	403.2080993652344	-402.1849060058594	735.1177368164062	436.5185852050781	-768.1535034179688	1393.902099609375	395.3829345703125	-836.9139404296875	1340.419677734375	397.3248291015625	-902.7171630859375	1080.388916015625	376.5443420410156	-813.3282470703125	1065.17236328125	347.80224609375	-884.177490234375	850.5151977539062	473.2198486328125	-952.4566040039062	855.9140014648438	422.1876831054688	-923.232421875	1014.072387695312	396.2295532226562	-909.8396606445312	667.2421875	473.0350341796875	-922.703369140625	738.4017333984375	498.7998046875	-966.734619140625	746.0435180664062	444.2182312011719	-704.6768798828125	1575.414306640625	362.4526977539062	-529.7299194335938	1611.40283203125	478.5571899414062	-615.812744140625	1608.397583007812	512.8771362304688	-567.4508056640625	1570.7060546875	310.7957763671875	-476.0415954589844	923.0343017578125	300.404541015625	-708.386474609375	957.1168823242188	540.1630859375	-472.7120361328125	937.353271484375	447.9739379882812	-472.2509155273438	463.7401123046875	342.6027221679688	-462.2617797851562	605.2582397460938	341.0762939453125	-574.990966796875	204.1995697021484	3.574501514434814	-516.380615234375	316.8518371582031	170.08056640625	-681.224365234375	30.48207855224609	56.40641021728516	-695.55126953125	95.3052978515625	24.95568466186523	-588.2653198242188	83.16295623779297	37.26948928833008	-627.7919921875	253.1548309326172	-13.16202259063721	-752.0126953125	495.3096618652344	564.4099731445312	-743.21923828125	40.14495849609375	551.6151733398438	-735.7955932617188	373.693115234375	589.6056518554688	-604.766845703125	50.71262359619141	700.5771484375	-596.9481811523438	50.24034881591797	631.8271484375	-711.686279296875	33.01300430297852	651.9160766601562	-721.9135131835938	39.66877746582031	482.5699462890625	-817.2843017578125	956.1650390625	453.4464721679688	-793.2047119140625	756.7450561523438	541.3980712890625	nan	nan	nan	
